<?xml version="1.0" standalone="no"?>
<!DOCTYPE svg PUBLIC "-//W3C//DTD SVG 20010904//EN"
 "http://www.w3.org/TR/2001/REC-SVG-20010904/DTD/svg10.dtd">
<svg version="1.0" xmlns="http://www.w3.org/2000/svg"
 width="700.000000pt" height="700.000000pt" viewBox="0 0 700.000000 700.000000"
 preserveAspectRatio="xMidYMid meet">
<metadata>
Created by potrace 1.14, written by Peter Selinger 2001-2017
</metadata>
<g transform="translate(0.000000,700.000000) scale(0.100000,-0.100000)"
fill="#000000" stroke="none">
<path d="M0 3500 l0 -3500 3500 0 3500 0 0 3500 0 3500 -3500 0 -3500 0 0
-3500z m6148 2014 c49 -20 90 -60 113 -109 18 -38 19 -104 19 -1638 0 -1781 6
-1631 -68 -1703 -69 -67 -8 -64 -1339 -64 l-1203 0 2 -182 3 -183 593 -3 592
-2 0 -120 0 -120 -1360 0 -1360 0 0 120 0 120 593 2 592 3 3 183 2 182 -1203
0 c-1331 0 -1270 -3 -1339 64 -74 72 -68 -78 -68 1700 0 1421 2 1601 16 1634
20 49 60 90 109 113 39 18 131 19 2653 19 2340 0 2617 -2 2650 -16z"/>
<path d="M1050 3765 l0 -1435 2450 0 2450 0 0 1435 0 1435 -2450 0 -2450 0 0
-1435z m2618 1189 c214 -45 431 -230 516 -440 73 -179 72 -394 -1 -569 -32
-76 -100 -179 -152 -230 -23 -21 -41 -42 -41 -46 0 -3 20 -12 44 -19 45 -12
45 -12 93 28 66 56 172 116 259 148 l74 27 -43 47 c-180 201 -168 505 29 689
155 146 364 177 554 84 295 -144 368 -533 146 -773 -21 -23 -36 -42 -35 -44 2
-1 33 -13 69 -25 287 -101 507 -347 527 -593 l6 -68 -496 0 -496 0 39 -62 c72
-117 119 -262 133 -410 l6 -58 -1391 0 -1391 0 6 83 c4 45 14 109 23 142 19
72 81 208 123 270 l30 45 -504 0 -505 0 0 43 c0 23 7 70 15 102 56 222 259
425 520 520 28 10 51 19 53 20 1 1 -15 21 -37 44 -183 198 -171 507 25 691
295 276 768 111 826 -288 21 -143 -28 -302 -123 -399 -36 -38 -39 -44 -23 -49
122 -41 252 -112 337 -182 44 -36 57 -41 82 -36 17 3 33 8 38 11 4 2 -22 36
-58 75 -45 49 -80 100 -110 162 -63 128 -79 198 -79 336 0 139 16 208 80 339
39 78 62 110 133 181 190 192 427 261 699 204z"/>
</g>
</svg>
