<svg width="36" height="36" viewBox="0 0 36 36" fill="none" xmlns="http://www.w3.org/2000/svg">
<g clip-path="url(#clip0_490_73)">
<path d="M22.5 1.5H6C4.35 1.5 3 2.85 3 4.5V24C3 24.825 3.675 25.5 4.5 25.5C5.325 25.5 6 24.825 6 24V6C6 5.175 6.675 4.5 7.5 4.5H22.5C23.325 4.5 24 3.825 24 3C24 2.175 23.325 1.5 22.5 1.5ZM28.5 7.5H12C10.35 7.5 9 8.85 9 10.5V31.5C9 33.15 10.35 34.5 12 34.5H28.5C30.15 34.5 31.5 33.15 31.5 31.5V10.5C31.5 8.85 30.15 7.5 28.5 7.5ZM27 31.5H13.5C12.675 31.5 12 30.825 12 30V12C12 11.175 12.675 10.5 13.5 10.5H27C27.825 10.5 28.5 11.175 28.5 12V30C28.5 30.825 27.825 31.5 27 31.5Z" fill="#FDFDFD"/>
</g>
<defs>
<clipPath id="clip0_490_73">
<rect width="36" height="36" fill="white"/>
</clipPath>
</defs>
</svg>
